<mxfile host="app.diagrams.net" modified="2023-10-08T03:00:25.149Z" agent="Mozilla/5.0 (Windows NT 10.0; Win64; x64) AppleWebKit/537.36 (KHTML, like Gecko) Chrome/117.0.0.0 Safari/537.36" etag="TkMr5nar1Eee1wJwB6tG" version="21.2.1" type="device">
  <diagram name="Page-1" id="1NgwtT_a-0-KzJIMsgz_">
    <mxGraphModel dx="1588" dy="2032" grid="1" gridSize="10" guides="1" tooltips="1" connect="1" arrows="1" fold="1" page="1" pageScale="1" pageWidth="850" pageHeight="1100" math="0" shadow="0">
      <root>
        <mxCell id="0" />
        <mxCell id="1" parent="0" />
        <mxCell id="O6W5lDfrHg-7fGW8wfuZ-2" value="Mental Health Support Website" style="swimlane;whiteSpace=wrap;html=1;" vertex="1" parent="1">
          <mxGeometry x="235" y="-390" width="380" height="730" as="geometry" />
        </mxCell>
        <mxCell id="O6W5lDfrHg-7fGW8wfuZ-7" value="Login" style="ellipse;whiteSpace=wrap;html=1;" vertex="1" parent="O6W5lDfrHg-7fGW8wfuZ-2">
          <mxGeometry x="143" y="40" width="95" height="70" as="geometry" />
        </mxCell>
        <mxCell id="O6W5lDfrHg-7fGW8wfuZ-8" value="Find Help" style="ellipse;whiteSpace=wrap;html=1;" vertex="1" parent="O6W5lDfrHg-7fGW8wfuZ-2">
          <mxGeometry x="65" y="130" width="95" height="70" as="geometry" />
        </mxCell>
        <mxCell id="O6W5lDfrHg-7fGW8wfuZ-11" value="Read Blog" style="ellipse;whiteSpace=wrap;html=1;" vertex="1" parent="O6W5lDfrHg-7fGW8wfuZ-2">
          <mxGeometry x="65" y="320" width="95" height="70" as="geometry" />
        </mxCell>
        <mxCell id="O6W5lDfrHg-7fGW8wfuZ-10" value="Write Blog" style="ellipse;whiteSpace=wrap;html=1;" vertex="1" parent="O6W5lDfrHg-7fGW8wfuZ-2">
          <mxGeometry x="225" y="320" width="95" height="70" as="geometry" />
        </mxCell>
        <mxCell id="O6W5lDfrHg-7fGW8wfuZ-12" value="Provide Help" style="ellipse;whiteSpace=wrap;html=1;" vertex="1" parent="O6W5lDfrHg-7fGW8wfuZ-2">
          <mxGeometry x="225" y="130" width="95" height="70" as="geometry" />
        </mxCell>
        <mxCell id="O6W5lDfrHg-7fGW8wfuZ-13" value="Take Test" style="ellipse;whiteSpace=wrap;html=1;" vertex="1" parent="O6W5lDfrHg-7fGW8wfuZ-2">
          <mxGeometry x="65" y="420" width="95" height="70" as="geometry" />
        </mxCell>
        <mxCell id="O6W5lDfrHg-7fGW8wfuZ-9" value="Check Blog" style="ellipse;whiteSpace=wrap;html=1;" vertex="1" parent="O6W5lDfrHg-7fGW8wfuZ-2">
          <mxGeometry x="143" y="235" width="95" height="70" as="geometry" />
        </mxCell>
        <mxCell id="O6W5lDfrHg-7fGW8wfuZ-25" value="" style="endArrow=classic;html=1;rounded=0;exitX=0.5;exitY=0;exitDx=0;exitDy=0;entryX=0;entryY=0.5;entryDx=0;entryDy=0;" edge="1" parent="O6W5lDfrHg-7fGW8wfuZ-2" source="O6W5lDfrHg-7fGW8wfuZ-11" target="O6W5lDfrHg-7fGW8wfuZ-9">
          <mxGeometry relative="1" as="geometry">
            <mxPoint x="205" y="310" as="sourcePoint" />
            <mxPoint x="305" y="310" as="targetPoint" />
          </mxGeometry>
        </mxCell>
        <mxCell id="O6W5lDfrHg-7fGW8wfuZ-26" value="Extends" style="edgeLabel;resizable=0;html=1;align=center;verticalAlign=middle;" connectable="0" vertex="1" parent="O6W5lDfrHg-7fGW8wfuZ-25">
          <mxGeometry relative="1" as="geometry" />
        </mxCell>
        <mxCell id="O6W5lDfrHg-7fGW8wfuZ-27" value="" style="endArrow=classic;html=1;rounded=0;exitX=0.5;exitY=0;exitDx=0;exitDy=0;entryX=1;entryY=0.5;entryDx=0;entryDy=0;" edge="1" parent="O6W5lDfrHg-7fGW8wfuZ-2" source="O6W5lDfrHg-7fGW8wfuZ-10" target="O6W5lDfrHg-7fGW8wfuZ-9">
          <mxGeometry relative="1" as="geometry">
            <mxPoint x="235" y="290" as="sourcePoint" />
            <mxPoint x="335" y="290" as="targetPoint" />
          </mxGeometry>
        </mxCell>
        <mxCell id="O6W5lDfrHg-7fGW8wfuZ-28" value="Extends" style="edgeLabel;resizable=0;html=1;align=center;verticalAlign=middle;" connectable="0" vertex="1" parent="O6W5lDfrHg-7fGW8wfuZ-27">
          <mxGeometry relative="1" as="geometry" />
        </mxCell>
        <mxCell id="O6W5lDfrHg-7fGW8wfuZ-29" value="Manage Website" style="ellipse;whiteSpace=wrap;html=1;" vertex="1" parent="O6W5lDfrHg-7fGW8wfuZ-2">
          <mxGeometry x="195" y="480" width="95" height="70" as="geometry" />
        </mxCell>
        <mxCell id="O6W5lDfrHg-7fGW8wfuZ-30" value="Review Blogs" style="ellipse;whiteSpace=wrap;html=1;aspect=fixed;" vertex="1" parent="O6W5lDfrHg-7fGW8wfuZ-2">
          <mxGeometry x="111.87" y="620" width="83.13" height="70" as="geometry" />
        </mxCell>
        <mxCell id="O6W5lDfrHg-7fGW8wfuZ-31" value="Add Professionals" style="ellipse;whiteSpace=wrap;html=1;" vertex="1" parent="O6W5lDfrHg-7fGW8wfuZ-2">
          <mxGeometry x="235" y="620" width="95" height="70" as="geometry" />
        </mxCell>
        <mxCell id="O6W5lDfrHg-7fGW8wfuZ-33" value="Manage Test Data" style="ellipse;whiteSpace=wrap;html=1;" vertex="1" parent="O6W5lDfrHg-7fGW8wfuZ-2">
          <mxGeometry x="48" y="520" width="95" height="70" as="geometry" />
        </mxCell>
        <mxCell id="O6W5lDfrHg-7fGW8wfuZ-36" value="" style="endArrow=classic;html=1;rounded=0;exitX=0;exitY=1;exitDx=0;exitDy=0;entryX=1;entryY=0.5;entryDx=0;entryDy=0;" edge="1" parent="O6W5lDfrHg-7fGW8wfuZ-2" source="O6W5lDfrHg-7fGW8wfuZ-29" target="O6W5lDfrHg-7fGW8wfuZ-33">
          <mxGeometry relative="1" as="geometry">
            <mxPoint x="-65" y="660" as="sourcePoint" />
            <mxPoint x="35" y="660" as="targetPoint" />
          </mxGeometry>
        </mxCell>
        <mxCell id="O6W5lDfrHg-7fGW8wfuZ-37" value="Includes" style="edgeLabel;resizable=0;html=1;align=center;verticalAlign=middle;" connectable="0" vertex="1" parent="O6W5lDfrHg-7fGW8wfuZ-36">
          <mxGeometry relative="1" as="geometry" />
        </mxCell>
        <mxCell id="O6W5lDfrHg-7fGW8wfuZ-34" value="" style="endArrow=classic;html=1;rounded=0;exitX=0;exitY=1;exitDx=0;exitDy=0;entryX=0.5;entryY=0;entryDx=0;entryDy=0;" edge="1" parent="O6W5lDfrHg-7fGW8wfuZ-2" source="O6W5lDfrHg-7fGW8wfuZ-29" target="O6W5lDfrHg-7fGW8wfuZ-31">
          <mxGeometry relative="1" as="geometry">
            <mxPoint x="-65" y="660" as="sourcePoint" />
            <mxPoint x="35" y="660" as="targetPoint" />
          </mxGeometry>
        </mxCell>
        <mxCell id="O6W5lDfrHg-7fGW8wfuZ-35" value="Includes" style="edgeLabel;resizable=0;html=1;align=center;verticalAlign=middle;" connectable="0" vertex="1" parent="O6W5lDfrHg-7fGW8wfuZ-34">
          <mxGeometry relative="1" as="geometry" />
        </mxCell>
        <mxCell id="O6W5lDfrHg-7fGW8wfuZ-40" value="" style="endArrow=classic;html=1;rounded=0;exitX=0;exitY=1;exitDx=0;exitDy=0;entryX=0.5;entryY=0;entryDx=0;entryDy=0;" edge="1" parent="O6W5lDfrHg-7fGW8wfuZ-2" source="O6W5lDfrHg-7fGW8wfuZ-29" target="O6W5lDfrHg-7fGW8wfuZ-30">
          <mxGeometry relative="1" as="geometry">
            <mxPoint x="205" y="550" as="sourcePoint" />
            <mxPoint x="35" y="660" as="targetPoint" />
          </mxGeometry>
        </mxCell>
        <mxCell id="O6W5lDfrHg-7fGW8wfuZ-41" value="Includes" style="edgeLabel;resizable=0;html=1;align=center;verticalAlign=middle;" connectable="0" vertex="1" parent="O6W5lDfrHg-7fGW8wfuZ-40">
          <mxGeometry relative="1" as="geometry" />
        </mxCell>
        <mxCell id="O6W5lDfrHg-7fGW8wfuZ-3" value="General User" style="shape=umlActor;verticalLabelPosition=bottom;verticalAlign=top;html=1;outlineConnect=0;" vertex="1" parent="1">
          <mxGeometry x="140" y="-190" width="30" height="60" as="geometry" />
        </mxCell>
        <mxCell id="O6W5lDfrHg-7fGW8wfuZ-4" value="Professional User" style="shape=umlActor;verticalLabelPosition=bottom;verticalAlign=top;html=1;outlineConnect=0;" vertex="1" parent="1">
          <mxGeometry x="680" y="-190" width="30" height="60" as="geometry" />
        </mxCell>
        <mxCell id="O6W5lDfrHg-7fGW8wfuZ-5" value="Administrator" style="shape=umlActor;verticalLabelPosition=bottom;verticalAlign=top;html=1;outlineConnect=0;" vertex="1" parent="1">
          <mxGeometry x="670" y="110" width="30" height="60" as="geometry" />
        </mxCell>
        <mxCell id="O6W5lDfrHg-7fGW8wfuZ-15" value="" style="endArrow=classic;html=1;rounded=0;exitX=0.5;exitY=0.5;exitDx=0;exitDy=0;exitPerimeter=0;entryX=0;entryY=0.5;entryDx=0;entryDy=0;" edge="1" parent="1" source="O6W5lDfrHg-7fGW8wfuZ-3" target="O6W5lDfrHg-7fGW8wfuZ-7">
          <mxGeometry width="50" height="50" relative="1" as="geometry">
            <mxPoint x="470" y="10" as="sourcePoint" />
            <mxPoint x="520" y="-40" as="targetPoint" />
          </mxGeometry>
        </mxCell>
        <mxCell id="O6W5lDfrHg-7fGW8wfuZ-16" value="" style="endArrow=classic;html=1;rounded=0;entryX=0;entryY=0.429;entryDx=0;entryDy=0;entryPerimeter=0;exitX=0.5;exitY=0.5;exitDx=0;exitDy=0;exitPerimeter=0;" edge="1" parent="1" source="O6W5lDfrHg-7fGW8wfuZ-3" target="O6W5lDfrHg-7fGW8wfuZ-8">
          <mxGeometry width="50" height="50" relative="1" as="geometry">
            <mxPoint x="470" y="10" as="sourcePoint" />
            <mxPoint x="520" y="-40" as="targetPoint" />
          </mxGeometry>
        </mxCell>
        <mxCell id="O6W5lDfrHg-7fGW8wfuZ-18" value="" style="endArrow=classic;html=1;rounded=0;exitX=0.5;exitY=0.5;exitDx=0;exitDy=0;exitPerimeter=0;entryX=0;entryY=0.5;entryDx=0;entryDy=0;" edge="1" parent="1" source="O6W5lDfrHg-7fGW8wfuZ-3" target="O6W5lDfrHg-7fGW8wfuZ-11">
          <mxGeometry width="50" height="50" relative="1" as="geometry">
            <mxPoint x="470" y="10" as="sourcePoint" />
            <mxPoint x="520" y="-40" as="targetPoint" />
          </mxGeometry>
        </mxCell>
        <mxCell id="O6W5lDfrHg-7fGW8wfuZ-19" value="" style="endArrow=classic;html=1;rounded=0;exitX=0.5;exitY=0.5;exitDx=0;exitDy=0;exitPerimeter=0;entryX=0;entryY=0.5;entryDx=0;entryDy=0;" edge="1" parent="1" source="O6W5lDfrHg-7fGW8wfuZ-3" target="O6W5lDfrHg-7fGW8wfuZ-10">
          <mxGeometry width="50" height="50" relative="1" as="geometry">
            <mxPoint x="470" y="10" as="sourcePoint" />
            <mxPoint x="520" y="-40" as="targetPoint" />
          </mxGeometry>
        </mxCell>
        <mxCell id="O6W5lDfrHg-7fGW8wfuZ-20" value="" style="endArrow=classic;html=1;rounded=0;exitX=0.5;exitY=0.5;exitDx=0;exitDy=0;exitPerimeter=0;entryX=0;entryY=0.5;entryDx=0;entryDy=0;" edge="1" parent="1" source="O6W5lDfrHg-7fGW8wfuZ-3" target="O6W5lDfrHg-7fGW8wfuZ-13">
          <mxGeometry width="50" height="50" relative="1" as="geometry">
            <mxPoint x="470" y="10" as="sourcePoint" />
            <mxPoint x="520" y="-40" as="targetPoint" />
          </mxGeometry>
        </mxCell>
        <mxCell id="O6W5lDfrHg-7fGW8wfuZ-21" value="" style="endArrow=classic;html=1;rounded=0;exitX=0.5;exitY=0.5;exitDx=0;exitDy=0;exitPerimeter=0;entryX=1;entryY=0.5;entryDx=0;entryDy=0;" edge="1" parent="1" source="O6W5lDfrHg-7fGW8wfuZ-4" target="O6W5lDfrHg-7fGW8wfuZ-7">
          <mxGeometry width="50" height="50" relative="1" as="geometry">
            <mxPoint x="470" y="50" as="sourcePoint" />
            <mxPoint x="520" as="targetPoint" />
          </mxGeometry>
        </mxCell>
        <mxCell id="O6W5lDfrHg-7fGW8wfuZ-22" value="" style="endArrow=classic;html=1;rounded=0;exitX=0.5;exitY=0.5;exitDx=0;exitDy=0;exitPerimeter=0;entryX=1;entryY=0.5;entryDx=0;entryDy=0;" edge="1" parent="1" source="O6W5lDfrHg-7fGW8wfuZ-4" target="O6W5lDfrHg-7fGW8wfuZ-12">
          <mxGeometry width="50" height="50" relative="1" as="geometry">
            <mxPoint x="470" y="50" as="sourcePoint" />
            <mxPoint x="520" as="targetPoint" />
          </mxGeometry>
        </mxCell>
        <mxCell id="O6W5lDfrHg-7fGW8wfuZ-23" value="" style="endArrow=classic;html=1;rounded=0;exitX=0.5;exitY=0.5;exitDx=0;exitDy=0;exitPerimeter=0;entryX=1;entryY=0.5;entryDx=0;entryDy=0;" edge="1" parent="1" source="O6W5lDfrHg-7fGW8wfuZ-4" target="O6W5lDfrHg-7fGW8wfuZ-11">
          <mxGeometry width="50" height="50" relative="1" as="geometry">
            <mxPoint x="470" y="50" as="sourcePoint" />
            <mxPoint x="520" as="targetPoint" />
          </mxGeometry>
        </mxCell>
        <mxCell id="O6W5lDfrHg-7fGW8wfuZ-24" value="" style="endArrow=classic;html=1;rounded=0;exitX=0.5;exitY=0.5;exitDx=0;exitDy=0;exitPerimeter=0;entryX=1;entryY=0.5;entryDx=0;entryDy=0;" edge="1" parent="1" source="O6W5lDfrHg-7fGW8wfuZ-4" target="O6W5lDfrHg-7fGW8wfuZ-10">
          <mxGeometry width="50" height="50" relative="1" as="geometry">
            <mxPoint x="470" y="50" as="sourcePoint" />
            <mxPoint x="520" as="targetPoint" />
          </mxGeometry>
        </mxCell>
        <mxCell id="O6W5lDfrHg-7fGW8wfuZ-32" value="" style="endArrow=classic;html=1;rounded=0;exitX=0.5;exitY=0.5;exitDx=0;exitDy=0;exitPerimeter=0;entryX=0;entryY=0.5;entryDx=0;entryDy=0;" edge="1" parent="1" source="O6W5lDfrHg-7fGW8wfuZ-3" target="O6W5lDfrHg-7fGW8wfuZ-9">
          <mxGeometry width="50" height="50" relative="1" as="geometry">
            <mxPoint x="470" y="50" as="sourcePoint" />
            <mxPoint x="520" as="targetPoint" />
          </mxGeometry>
        </mxCell>
        <mxCell id="O6W5lDfrHg-7fGW8wfuZ-42" value="" style="endArrow=classic;html=1;rounded=0;exitX=0.5;exitY=0.5;exitDx=0;exitDy=0;exitPerimeter=0;entryX=1;entryY=0.5;entryDx=0;entryDy=0;" edge="1" parent="1" source="O6W5lDfrHg-7fGW8wfuZ-5" target="O6W5lDfrHg-7fGW8wfuZ-29">
          <mxGeometry width="50" height="50" relative="1" as="geometry">
            <mxPoint x="370" y="250" as="sourcePoint" />
            <mxPoint x="420" y="200" as="targetPoint" />
          </mxGeometry>
        </mxCell>
        <mxCell id="O6W5lDfrHg-7fGW8wfuZ-43" value="" style="endArrow=classic;html=1;rounded=0;exitX=0.5;exitY=0.5;exitDx=0;exitDy=0;exitPerimeter=0;entryX=0.5;entryY=1;entryDx=0;entryDy=0;" edge="1" parent="1" source="O6W5lDfrHg-7fGW8wfuZ-5" target="O6W5lDfrHg-7fGW8wfuZ-7">
          <mxGeometry width="50" height="50" relative="1" as="geometry">
            <mxPoint x="370" y="250" as="sourcePoint" />
            <mxPoint x="420" y="200" as="targetPoint" />
          </mxGeometry>
        </mxCell>
      </root>
    </mxGraphModel>
  </diagram>
</mxfile>
